<svg width="36" height="42" viewBox="0 0 36 42" fill="none" xmlns="http://www.w3.org/2000/svg">
<path d="M34.25 41C33.9167 41 33.5833 40.8333 33.3333 40.6667L18 25.1667L2.66667 40.6667C2.33333 41 1.75 41.1667 1.33333 40.9167C0.833333 40.75 0.5 40.25 0.5 39.75V2.25C0.5 1.58333 1.08333 1 1.75 1H34.25C34.9167 1 35.5 1.58333 35.5 2.25V39.75C35.5 40.25 35.1667 40.75 34.75 40.9167C34.5833 41 34.4167 41 34.25 41ZM18 22.6667C18.6667 22.6667 19.3333 22.9167 19.8333 23.4167L33 36.75V3.5H3V36.75L16.1667 23.4167C16.6667 22.9167 17.3333 22.6667 18 22.6667Z" fill="black" stroke="black"/>
</svg>
