<svg width="44" height="44" viewBox="0 0 44 44" fill="none" xmlns="http://www.w3.org/2000/svg">
<path fill-rule="evenodd" clip-rule="evenodd" d="M42.5625 41.3375L40.1125 31.7125C41.6875 28.825 42.5625 25.5 42.5625 22C42.5625 10.625 33.375 1.4375 22 1.4375C10.625 1.4375 1.4375 10.625 1.4375 22C1.4375 33.375 10.625 42.5625 22 42.5625C25.5 42.5625 28.825 41.6875 31.7125 40.1125L41.3375 42.5625C42.0375 42.7375 42.7375 42.0375 42.5625 41.3375ZM39.9375 22C39.9375 25.5 39.0625 28.125 37.6625 30.75C37.4875 31.1 37.4 31.5375 37.4875 31.975L39.325 39.325L32.0625 37.4875C31.625 37.4 31.1875 37.4 30.8375 37.6625C29.2625 38.5375 26.2875 39.9375 22.0875 39.9375C12.1125 39.9375 4.0625 31.8875 4.0625 22C4.0625 12.1125 12.1125 4.0625 22 4.0625C31.8875 4.0625 39.9375 12.1125 39.9375 22Z" fill="black" stroke="black"/>
</svg>
