<svg width="48" height="41" viewBox="0 0 48 41" fill="none" stroke="black" strokeWidth="2" xmlns="http://www.w3.org/2000/svg">
<path d="M34.1774 3.8429C39.6502 3.8429 44.1628 8.83558 44.1628 14.8844C44.1628 21.4133 38.498 25.4459 33.1213 30.2465C27.7445 35.0472 24.9601 37.6395 24 38.2156C22.9439 37.5435 19.4874 34.3751 14.8788 30.2465C9.40601 25.4459 3.83724 21.4133 3.83724 14.8844C3.83724 8.83558 8.34986 3.8429 13.8226 3.8429C17.8552 3.8429 20.0635 5.76316 21.5997 7.97146C23.4239 10.4678 23.712 11.716 24 11.716C24.2881 11.716 24.5761 10.4678 26.4003 7.97146C27.9366 5.76316 30.1449 3.8429 34.1774 3.8429V3.8429ZM34.1774 0.962502C29.8568 0.962502 26.5924 2.69074 24 6.33924C21.4077 2.78675 18.1432 1.05851 13.8226 1.05851C6.71764 0.962502 0.956848 7.20336 0.956848 14.8844C0.956848 21.8934 6.14156 26.406 11.1342 30.7266C11.7103 31.2067 12.3824 31.7827 12.9585 32.3588L15.1668 34.2791C19.3914 38.0236 21.5037 39.9439 22.4638 40.5199C22.9439 40.808 23.5199 41 24 41C24.5761 41 25.0562 40.808 25.5362 40.5199C26.4964 39.9439 28.2246 38.4076 33.0253 33.991L34.9455 32.2628C35.6176 31.6867 36.1937 31.1106 36.8658 30.6306C41.9545 26.406 47.0432 21.9894 47.0432 14.8844C47.0432 7.20336 41.2824 0.962502 34.1774 0.962502V0.962502Z" fill="black"/>
</svg>
