<svg width="45" height="47" viewBox="0 0 45 47" fill="none" xmlns="http://www.w3.org/2000/svg">
<path d="M43.6041 47.0001H28.8458C28.0791 47.0001 27.4083 46.3292 27.4083 45.5626V33.7751C27.4083 31.2834 25.3958 29.3667 22.9999 29.3667C20.6041 29.3667 18.5916 31.3792 18.5916 33.7751V45.5626C18.5916 46.3292 17.9208 47.0001 17.1541 47.0001H2.39575C1.62909 47.0001 0.958252 46.3292 0.958252 45.5626V23.0417C0.958252 22.6584 1.14992 22.2751 1.34159 21.9876L21.9458 1.3834C22.5208 0.808398 23.4791 0.808398 23.9583 1.3834L44.5624 21.9876C44.8499 22.2751 44.9458 22.6584 44.9458 23.0417V45.5626C45.0416 46.3292 44.3708 47.0001 43.6041 47.0001Z" fill="black"/>
</svg>
