<svg width="46" height="41" viewBox="0 0 46 41" fill="none" xmlns="http://www.w3.org/2000/svg">
<path d="M33.1583 3.8457C38.6208 3.8457 43.125 8.82904 43.125 14.8665C43.125 21.3832 37.4708 25.4082 32.1042 30.1999C26.7375 34.9915 23.9583 37.579 23 38.154C21.9458 37.4832 18.4958 34.3207 13.8958 30.1999C8.43333 25.4082 2.875 21.3832 2.875 14.8665C2.875 8.82904 7.37917 3.8457 12.8417 3.8457C16.8667 3.8457 19.0708 5.76237 20.6042 7.96654C22.425 10.4582 22.7125 11.704 23 11.704C23.2875 11.704 23.575 10.4582 25.3958 7.96654C26.9292 5.76237 29.1333 3.8457 33.1583 3.8457ZM33.1583 0.970703C28.8458 0.970703 25.5875 2.6957 23 6.33737C20.4125 2.79154 17.1542 1.06654 12.8417 1.06654C5.75 0.970703 0 7.19987 0 14.8665C0 21.8624 5.175 26.3665 10.1583 30.679C10.7333 31.1582 11.4042 31.7332 11.9792 32.3082L14.1833 34.2249C18.4 37.9624 20.5083 39.879 21.4667 40.454C21.9458 40.7415 22.5208 40.9332 23 40.9332C23.575 40.9332 24.0542 40.7415 24.5333 40.454C25.4917 39.879 27.2167 38.3457 32.0083 33.9374L33.925 32.2124C34.5958 31.6374 35.1708 31.0624 35.8417 30.5832C40.9208 26.3665 46 21.9582 46 14.8665C46 7.19987 40.25 0.970703 33.1583 0.970703Z" fill="black"/>
<path d="M33.1583 0.970703C28.8458 0.970703 25.5875 2.6957 23 6.33737C20.4125 2.79154 17.1542 1.06654 12.8417 1.06654C5.75 0.970703 0 7.19987 0 14.8665C0 21.8624 5.175 26.3665 10.1583 30.679C10.7333 31.1582 11.4042 31.7332 11.9792 32.3082L14.1833 34.2249C18.4 37.9624 20.5083 39.879 21.4667 40.454C21.9458 40.7415 22.5208 40.9332 23 40.9332C23.4792 40.9332 24.0542 40.7415 24.5333 40.454C25.4917 39.879 27.2167 38.3457 32.0083 33.9374L33.925 32.2124C34.5958 31.6374 35.1708 31.0624 35.8417 30.5832C40.9208 26.3665 46 21.9582 46 14.8665C46 7.19987 40.25 0.970703 33.1583 0.970703Z" fill="#ED4956"/>
</svg>
