<svg width="44" height="44" viewBox="0 0 44 44" fill="none" xmlns="http://www.w3.org/2000/svg">
<path d="M19.3766 0C8.69265 0 0 8.69265 0 19.3766C0 30.0612 8.69265 38.7533 19.3766 38.7533C30.0612 38.7533 38.7533 30.0612 38.7533 19.3766C38.7533 8.69265 30.0612 0 19.3766 0ZM19.3766 35.1761C10.6649 35.1761 3.57723 28.0884 3.57723 19.3767C3.57723 10.665 10.6649 3.57723 19.3766 3.57723C28.0884 3.57723 35.176 10.6649 35.176 19.3766C35.176 28.0884 28.0884 35.1761 19.3766 35.1761Z" fill="black"/>
<path d="M43.4759 40.9467L33.2212 30.692C32.5224 29.9932 31.3908 29.9932 30.692 30.692C29.9933 31.3901 29.9933 32.523 30.692 33.2211L40.9468 43.4758C41.2961 43.8252 41.7535 43.9999 42.2113 43.9999C42.6686 43.9999 43.1265 43.8252 43.4759 43.4758C44.1747 42.7777 44.1747 41.6449 43.4759 40.9467Z" fill="black"/>
</svg>
