<svg width="47" height="41" viewBox="0 0 47 41" fill="none" xmlns="http://www.w3.org/2000/svg">
<path d="M45.8125 1.5625C45.5312 1.09375 45.0625 0.8125 44.5938 0.8125H2.40625C1.84375 0.90625 1.28125 1.28125 1.09375 1.75C0.90625 2.21875 1 2.875 1.375 3.34375L16.2812 17.9688L21.4375 39.1562C21.5312 39.7188 22 40.0938 22.5625 40.1875H22.75C23.2188 40.1875 23.6875 39.9062 23.9688 39.5312L45.7188 2.96875C46.0938 2.59375 46.0938 2.03125 45.8125 1.5625ZM5.875 3.71875H39.1562L17.875 15.5313L5.875 3.71875ZM23.4062 35.2188L19.2812 17.9688L40.75 6.0625L23.4062 35.2188Z" fill="black" stroke="black"/>
</svg>
